<mxfile host="app.diagrams.net" agent="Mozilla/5.0 (Macintosh; Intel Mac OS X 10_15_7) AppleWebKit/605.1.15 (KHTML, like Gecko) Version/18.1.1 Safari/605.1.15" version="26.0.8">
  <diagram id="C5RBs43oDa-KdzZeNtuy" name="Page-1">
    <mxGraphModel grid="1" page="1" gridSize="10" guides="1" tooltips="1" connect="1" arrows="1" fold="1" pageScale="1" pageWidth="827" pageHeight="1169" math="0" shadow="0">
      <root>
        <mxCell id="WIyWlLk6GJQsqaUBKTNV-0" />
        <mxCell id="WIyWlLk6GJQsqaUBKTNV-1" parent="WIyWlLk6GJQsqaUBKTNV-0" />
        <mxCell id="skzIu8i358GmqLHpjOFL-72" value="" style="rounded=0;whiteSpace=wrap;html=1;" vertex="1" parent="WIyWlLk6GJQsqaUBKTNV-1">
          <mxGeometry x="100" y="274.5" width="1300" height="475.5" as="geometry" />
        </mxCell>
        <mxCell id="skzIu8i358GmqLHpjOFL-18" value="Hugging Face Spaces" style="whiteSpace=wrap;strokeWidth=2;verticalAlign=top;fontSize=16;" vertex="1" parent="WIyWlLk6GJQsqaUBKTNV-1">
          <mxGeometry x="130" y="310" width="1220" height="410" as="geometry" />
        </mxCell>
        <mxCell id="skzIu8i358GmqLHpjOFL-19" value="Gradio Web Interface for Testing" style="whiteSpace=wrap;strokeWidth=2;verticalAlign=top;container=0;fontSize=16;" vertex="1" parent="WIyWlLk6GJQsqaUBKTNV-1">
          <mxGeometry x="180" y="340" width="200" height="340" as="geometry" />
        </mxCell>
        <mxCell id="skzIu8i358GmqLHpjOFL-22" value="Gradio API" style="whiteSpace=wrap;strokeWidth=2;verticalAlign=top;container=0;fontSize=16;" vertex="1" parent="WIyWlLk6GJQsqaUBKTNV-1">
          <mxGeometry x="980" y="390" width="310" height="230" as="geometry" />
        </mxCell>
        <mxCell id="skzIu8i358GmqLHpjOFL-66" style="edgeStyle=orthogonalEdgeStyle;rounded=1;orthogonalLoop=1;jettySize=auto;html=1;exitX=1;exitY=0.5;exitDx=0;exitDy=0;entryX=0;entryY=0.5;entryDx=0;entryDy=0;curved=0;" edge="1" parent="WIyWlLk6GJQsqaUBKTNV-1" source="skzIu8i358GmqLHpjOFL-20" target="skzIu8i358GmqLHpjOFL-45">
          <mxGeometry relative="1" as="geometry" />
        </mxCell>
        <mxCell id="skzIu8i358GmqLHpjOFL-20" value="Input" style="whiteSpace=wrap;strokeWidth=2;verticalAlign=top;fontSize=15;" vertex="1" parent="WIyWlLk6GJQsqaUBKTNV-1">
          <mxGeometry x="230" y="390" width="100" height="150" as="geometry" />
        </mxCell>
        <mxCell id="skzIu8i358GmqLHpjOFL-21" value="Output" style="whiteSpace=wrap;strokeWidth=2;verticalAlign=top;fontSize=15;" vertex="1" parent="WIyWlLk6GJQsqaUBKTNV-1">
          <mxGeometry x="230" y="552" width="100" height="108" as="geometry" />
        </mxCell>
        <mxCell id="skzIu8i358GmqLHpjOFL-39" value="&lt;font style=&quot;font-size: 15px;&quot;&gt;Textbox&lt;/font&gt;" style="rounded=0;whiteSpace=wrap;html=1;" vertex="1" parent="WIyWlLk6GJQsqaUBKTNV-1">
          <mxGeometry x="250" y="419.5" width="60" height="25" as="geometry" />
        </mxCell>
        <mxCell id="skzIu8i358GmqLHpjOFL-40" value="&lt;font style=&quot;font-size: 15px;&quot;&gt;Number&lt;/font&gt;" style="rounded=0;whiteSpace=wrap;html=1;" vertex="1" parent="WIyWlLk6GJQsqaUBKTNV-1">
          <mxGeometry x="250" y="454.5" width="60" height="25" as="geometry" />
        </mxCell>
        <mxCell id="skzIu8i358GmqLHpjOFL-41" value="&lt;font style=&quot;font-size: 15px;&quot;&gt;Image&lt;/font&gt;" style="rounded=0;whiteSpace=wrap;html=1;" vertex="1" parent="WIyWlLk6GJQsqaUBKTNV-1">
          <mxGeometry x="250" y="490.5" width="60" height="25" as="geometry" />
        </mxCell>
        <mxCell id="skzIu8i358GmqLHpjOFL-42" value="&lt;font style=&quot;font-size: 15px;&quot;&gt;Number&lt;/font&gt;" style="rounded=0;whiteSpace=wrap;html=1;" vertex="1" parent="WIyWlLk6GJQsqaUBKTNV-1">
          <mxGeometry x="251" y="585.5" width="60" height="25" as="geometry" />
        </mxCell>
        <mxCell id="skzIu8i358GmqLHpjOFL-43" value="&lt;font style=&quot;font-size: 15px;&quot;&gt;Gallery&lt;/font&gt;" style="rounded=0;whiteSpace=wrap;html=1;" vertex="1" parent="WIyWlLk6GJQsqaUBKTNV-1">
          <mxGeometry x="251" y="620.5" width="60" height="25" as="geometry" />
        </mxCell>
        <mxCell id="skzIu8i358GmqLHpjOFL-71" style="edgeStyle=orthogonalEdgeStyle;rounded=1;orthogonalLoop=1;jettySize=auto;html=1;entryX=1;entryY=0.5;entryDx=0;entryDy=0;curved=0;" edge="1" parent="WIyWlLk6GJQsqaUBKTNV-1" source="skzIu8i358GmqLHpjOFL-44" target="skzIu8i358GmqLHpjOFL-21">
          <mxGeometry relative="1" as="geometry">
            <Array as="points">
              <mxPoint x="410" y="580" />
              <mxPoint x="410" y="620" />
              <mxPoint x="330" y="620" />
            </Array>
          </mxGeometry>
        </mxCell>
        <mxCell id="skzIu8i358GmqLHpjOFL-44" value="&lt;font style=&quot;font-size: 20px;&quot;&gt;gradio post processing&lt;/font&gt;" style="ellipse;whiteSpace=wrap;html=1;" vertex="1" parent="WIyWlLk6GJQsqaUBKTNV-1">
          <mxGeometry x="490" y="530" width="140" height="130" as="geometry" />
        </mxCell>
        <mxCell id="skzIu8i358GmqLHpjOFL-67" style="edgeStyle=orthogonalEdgeStyle;rounded=1;orthogonalLoop=1;jettySize=auto;html=1;entryX=0;entryY=0.5;entryDx=0;entryDy=0;curved=0;" edge="1" parent="WIyWlLk6GJQsqaUBKTNV-1" source="skzIu8i358GmqLHpjOFL-45" target="skzIu8i358GmqLHpjOFL-46">
          <mxGeometry relative="1" as="geometry" />
        </mxCell>
        <mxCell id="skzIu8i358GmqLHpjOFL-45" value="&lt;font style=&quot;font-size: 20px;&quot;&gt;gradio pre processing&lt;/font&gt;" style="ellipse;whiteSpace=wrap;html=1;" vertex="1" parent="WIyWlLk6GJQsqaUBKTNV-1">
          <mxGeometry x="490" y="367" width="140" height="130" as="geometry" />
        </mxCell>
        <mxCell id="skzIu8i358GmqLHpjOFL-48" value="" style="group" connectable="0" vertex="1" parent="WIyWlLk6GJQsqaUBKTNV-1">
          <mxGeometry x="730" y="350" width="140" height="116.13" as="geometry" />
        </mxCell>
        <mxCell id="skzIu8i358GmqLHpjOFL-46" value="Parameters" style="whiteSpace=wrap;strokeWidth=2;verticalAlign=top;fontSize=15;" vertex="1" parent="skzIu8i358GmqLHpjOFL-48">
          <mxGeometry width="140" height="116.13" as="geometry" />
        </mxCell>
        <mxCell id="skzIu8i358GmqLHpjOFL-47" value="&lt;font style=&quot;font-size: 15px;&quot;&gt;{&lt;/font&gt;&lt;div&gt;&lt;div style=&quot;&quot;&gt;&lt;font style=&quot;font-size: 15px;&quot;&gt;&lt;span style=&quot;white-space: pre;&quot;&gt;&#x9;&lt;/span&gt;str&lt;/font&gt;&lt;/div&gt;&lt;div style=&quot;&quot;&gt;&lt;font style=&quot;font-size: 15px;&quot;&gt;&lt;span style=&quot;white-space: pre;&quot;&gt;&#x9;&lt;/span&gt;int&amp;nbsp;&lt;/font&gt;&lt;/div&gt;&lt;div style=&quot;&quot;&gt;&lt;font style=&quot;font-size: 15px;&quot;&gt;&lt;span style=&quot;white-space: pre;&quot;&gt;&#x9;&lt;/span&gt;numpy.array&lt;/font&gt;&lt;/div&gt;&lt;div&gt;&lt;font style=&quot;font-size: 15px;&quot;&gt;}&lt;/font&gt;&lt;/div&gt;&lt;/div&gt;" style="text;html=1;align=left;verticalAlign=middle;whiteSpace=wrap;rounded=0;" vertex="1" parent="skzIu8i358GmqLHpjOFL-48">
          <mxGeometry x="14" y="25.629999999999995" width="116" height="73" as="geometry" />
        </mxCell>
        <mxCell id="skzIu8i358GmqLHpjOFL-23" value="Python Function" style="whiteSpace=wrap;strokeWidth=2;verticalAlign=middle;container=0;fontSize=20;" vertex="1" parent="WIyWlLk6GJQsqaUBKTNV-1">
          <mxGeometry x="1017.83" y="454.27" width="222.17" height="115.73" as="geometry" />
        </mxCell>
        <mxCell id="skzIu8i358GmqLHpjOFL-49" value="" style="group" connectable="0" vertex="1" parent="WIyWlLk6GJQsqaUBKTNV-1">
          <mxGeometry x="730" y="560" width="140" height="116.13" as="geometry" />
        </mxCell>
        <mxCell id="skzIu8i358GmqLHpjOFL-52" value="" style="group" connectable="0" vertex="1" parent="skzIu8i358GmqLHpjOFL-49">
          <mxGeometry width="140" height="116.13" as="geometry" />
        </mxCell>
        <mxCell id="skzIu8i358GmqLHpjOFL-50" value="Return Values" style="whiteSpace=wrap;strokeWidth=2;verticalAlign=top;fontSize=15;" vertex="1" parent="skzIu8i358GmqLHpjOFL-52">
          <mxGeometry width="140" height="116.13" as="geometry" />
        </mxCell>
        <mxCell id="skzIu8i358GmqLHpjOFL-51" value="&lt;font style=&quot;font-size: 15px;&quot;&gt;{&lt;/font&gt;&lt;div&gt;&lt;div style=&quot;&quot;&gt;&lt;span style=&quot;white-space: pre;&quot;&gt;&lt;font style=&quot;font-size: 15px;&quot;&gt;&#x9;Float&lt;/font&gt;&lt;/span&gt;&lt;/div&gt;&lt;div style=&quot;&quot;&gt;&lt;span style=&quot;white-space: pre;&quot;&gt;&lt;font style=&quot;font-size: 15px;&quot;&gt;&lt;span style=&quot;white-space: pre;&quot;&gt;&#x9;List [str]&lt;/span&gt;&lt;br&gt;&lt;/font&gt;&lt;/span&gt;&lt;/div&gt;&lt;div&gt;&lt;font style=&quot;font-size: 15px;&quot;&gt;}&lt;/font&gt;&lt;/div&gt;&lt;/div&gt;" style="text;html=1;align=left;verticalAlign=middle;whiteSpace=wrap;rounded=0;" vertex="1" parent="skzIu8i358GmqLHpjOFL-52">
          <mxGeometry x="12" y="28.629999999999995" width="116" height="73" as="geometry" />
        </mxCell>
        <mxCell id="skzIu8i358GmqLHpjOFL-68" style="edgeStyle=orthogonalEdgeStyle;rounded=1;orthogonalLoop=1;jettySize=auto;html=1;entryX=0.003;entryY=0.426;entryDx=0;entryDy=0;entryPerimeter=0;curved=0;" edge="1" parent="WIyWlLk6GJQsqaUBKTNV-1" source="skzIu8i358GmqLHpjOFL-47" target="skzIu8i358GmqLHpjOFL-22">
          <mxGeometry relative="1" as="geometry" />
        </mxCell>
        <mxCell id="skzIu8i358GmqLHpjOFL-69" style="edgeStyle=orthogonalEdgeStyle;rounded=1;orthogonalLoop=1;jettySize=auto;html=1;entryX=1.008;entryY=0.411;entryDx=0;entryDy=0;entryPerimeter=0;curved=0;" edge="1" parent="WIyWlLk6GJQsqaUBKTNV-1" source="skzIu8i358GmqLHpjOFL-22" target="skzIu8i358GmqLHpjOFL-51">
          <mxGeometry relative="1" as="geometry" />
        </mxCell>
        <mxCell id="skzIu8i358GmqLHpjOFL-70" style="edgeStyle=orthogonalEdgeStyle;rounded=1;orthogonalLoop=1;jettySize=auto;html=1;exitX=0;exitY=0.5;exitDx=0;exitDy=0;entryX=1;entryY=0.5;entryDx=0;entryDy=0;curved=0;" edge="1" parent="WIyWlLk6GJQsqaUBKTNV-1" source="skzIu8i358GmqLHpjOFL-50" target="skzIu8i358GmqLHpjOFL-44">
          <mxGeometry relative="1" as="geometry" />
        </mxCell>
      </root>
    </mxGraphModel>
  </diagram>
</mxfile>
